<svg xmlns="http://www.w3.org/2000/svg" width="499.095" height="127.662" viewBox="0 0 499.095 127.662">
  <g id="horizontal_logo" data-name="horizontal logo" transform="translate(-192 -491)">
    <g id="Group_60" data-name="Group 60" transform="translate(335.492 523)">
      <path id="Path_15" data-name="Path 15" d="M203.036.709l-12.21,19.967L178.362.709H163.694l19.249,29.719L161.7,62.859h15.05l13.821-21.494L204.35,62.859h15.135l-21.24-31.966L217.577.709Z" transform="translate(80.2 0.351)" fill="#00b0ff"/>
      <g id="Group_62" data-name="Group 62" transform="translate(0 0)">
        <path id="Path_11" data-name="Path 11" d="M41.971,40.36l12.167,3.858q-2.8,10.174-9.306,15.114T28.32,64.27q-12.382,0-20.351-8.458T0,32.687Q0,17.17,8.012,8.585T29.083,0q11.4,0,18.526,6.741,4.237,3.985,6.359,11.447L41.546,21.155a12.836,12.836,0,0,0-13.1-10.428,14.141,14.141,0,0,0-11.214,4.959q-4.3,4.961-4.3,16.068,0,11.788,4.24,16.788a13.761,13.761,0,0,0,11.021,5,12.567,12.567,0,0,0,8.606-3.18q3.6-3.177,5.173-10" transform="translate(0)" fill="#fff"/>
        <path id="Path_12" data-name="Path 12" d="M43.415,62.859V.709H69.828q9.961,0,14.477,1.674A14.287,14.287,0,0,1,91.532,8.34a17.908,17.908,0,0,1,2.715,9.793,16.592,16.592,0,0,1-4.112,11.552q-4.113,4.56-12.3,5.745a29.279,29.279,0,0,1,6.72,5.215A70.73,70.73,0,0,1,91.7,50.735l7.589,12.125H84.284L75.211,49.336A87.229,87.229,0,0,0,68.6,40.2a9.614,9.614,0,0,0-3.773-2.587,20.662,20.662,0,0,0-6.316-.7H55.963V62.859ZM55.963,26.993h9.286q9.027,0,11.277-.763A6.763,6.763,0,0,0,80.044,23.6a8.09,8.09,0,0,0,1.272-4.663,7.457,7.457,0,0,0-1.674-5.067,7.688,7.688,0,0,0-4.727-2.437q-1.526-.213-9.157-.212H55.963Z" transform="translate(21.533 0.352)" fill="#fff"/>
        <path id="Path_13" data-name="Path 13" d="M85.3,62.859V.708h46.082V11.222H97.848V25h31.2V35.472h-31.2V52.387H132.57V62.859Z" transform="translate(42.307 0.351)" fill="#fff"/>
        <path id="Path_14" data-name="Path 14" d="M182.149,62.859H168.5l-5.427-14.118H138.229L133.1,62.859H119.788L143.994.709h13.271Zm-23.1-24.589-8.564-23.064L142.087,38.27Z" transform="translate(59.412 0.352)" fill="#fff"/>
        <path id="Path_16" data-name="Path 16" d="M204.578.708h12.548V34.369a69.786,69.786,0,0,0,.467,10.388,10.056,10.056,0,0,0,3.837,6.126q3.029,2.311,8.288,2.31,5.343,0,8.054-2.183a8.634,8.634,0,0,0,3.264-5.362,70.111,70.111,0,0,0,.551-10.559V.708h12.55V33.352q0,11.193-1.017,15.814a17.5,17.5,0,0,1-3.753,7.8,18.924,18.924,0,0,1-7.311,5.067A31.815,31.815,0,0,1,230.1,63.918q-8.9,0-13.5-2.054a19.294,19.294,0,0,1-7.27-5.344,17.1,17.1,0,0,1-3.52-6.889q-1.23-5.341-1.228-15.771Z" transform="translate(101.466 0.351)" fill="#fff"/>
      </g>
    </g>
    <g id="Group_55" data-name="Group 55" transform="translate(192 491)">
      <path id="Union_1" data-name="Union 1" d="M87.778,0,98.293,10.189,87.778,20.378ZM10.515,20.378,0,10.189,10.515,0H87.778V20.378Z" transform="translate(14.231)" fill="#bbd651"/>
      <path id="Union_2" data-name="Union 2" d="M87.778,0,98.293,10.189,87.778,20.378ZM10.515,20.378,0,10.189,10.515,0H87.778V20.378Z" transform="translate(14.231 107.284)" fill="#bbd651"/>
      <path id="Union_3" data-name="Union 3" d="M87.958,0,98.494,10.079,87.958,20.157ZM10.537,20.157,0,10.079,10.537,0H87.958V20.157Z" transform="translate(107.199 112.32) rotate(-90)" fill="#bbd651"/>
      <path id="Union_4" data-name="Union 4" d="M87.958,0,98.494,10.079,87.958,20.157ZM10.537,20.157,0,10.079,10.537,0H87.958V20.157Z" transform="translate(0 112.32) rotate(-90)" fill="#bbd651"/>
      <path id="Union_5" data-name="Union 5" d="M34.409,0,44.945,10.079,34.409,20.157ZM10.537,20.157,0,10.079,10.537,0H34.409V20.157Z" transform="translate(27.029 85.546) rotate(-90)" fill="#00b0ff"/>
      <path id="Union_6" data-name="Union 6" d="M34.409,0,44.945,10.079,34.409,20.157ZM10.537,20.157,0,10.079,10.537,0H34.409V20.157Z" transform="translate(41.205 80.023)" fill="#00b0ff"/>
      <path id="Union_7" data-name="Union 7" d="M34.409,0,44.945,10.079,34.409,20.157ZM10.537,20.157,0,10.079,10.537,0H34.409V20.157Z" transform="translate(41.205 26.424)" fill="#00b0ff"/>
    </g>
  </g>
</svg>
